<?xml version="1.0" encoding="utf-8"?>
<!-- Generator: Adobe Illustrator 22.1.0, SVG Export Plug-In . SVG Version: 6.00 Build 0)  -->
<svg version="1.1" id="Capa_1" xmlns="http://www.w3.org/2000/svg" xmlns:xlink="http://www.w3.org/1999/xlink" x="0px" y="0px"
	 width="793.7px" height="609.4px" viewBox="0 0 793.7 609.4" style="enable-background:new 0 0 793.7 609.4;" xml:space="preserve"
	>
<style type="text/css">
	.st0{fill:#FFFFFF;}
	.st1{fill-rule:evenodd;clip-rule:evenodd;fill:#FFFFFF;}
</style>
<g id="Logo_Liberty_Blanco_2_">
	<g id="Logo_Liberty_Blanco_3_">
		<g>
			<path class="st0" d="M683.8,270.9c-0.4-1.7,5.1-2.7,5.1-3c0-1.6,0.2-1.5-1-1.7l-30.5,0c-0.8,0-0.1,4.3,0.6,4.4
				c2.9,0.1,6.1-0.2,7.3,2.1l12.6,23.7c5.8,10.8,11,21.7,10.5,24.4c-0.8,3.9-7.9,21.6-17.5,24c-3.8,0.9-12.1-2.2-11.6-0.6
				c0.5,1.6,0,8.8-3.3,15.7c-0.2,0.5,9.2,2.3,17-2.5c3.5-2.1,6.1-6.4,8.3-11.3l30-65.2c1.1-2.3,2.3-6.2,4.8-8.6
				c2.7-2.5,6.7-3.5,6.7-3.5l0.7-2.5l-22.6,0c-1.1,0.1-0.2,2.6,0,2.6c0.8-0.2,3.1,0.2,4.3,0.9c3.3,3.5,3.4,4.1,1.5,10.4l-9.5,21.5
				C695.1,296.9,685.7,278.6,683.8,270.9z"/>
			<path class="st0" d="M642.4,270.3l14.4,0c0.8,0,1.4,0,1.8-0.4c0.4-0.4,0.3-2.7,0.1-3.2c-0.1-0.4-0.4-0.7-0.7-0.7l-5,0h-8.7
				c-3.1,0-2-1.4-2-5.5l0-13.2c0-2.2-1.2-2.5-3.2-0.5l-21.1,21c-1.1,1.1-0.8,2.4,0.3,2.4l7.9,0c0.6,0,0.6,1.4,0.6,2.3v32.1
				c0,18.1,23.9,20.6,33.1,9.1c1.3-1.6,3.4-5.6,0.5-3.6c-10.1,6.8-18,3.4-18-8.8L642.4,270.3z"/>
			<path class="st0" d="M563,268.6c0.1,2.1,9.8-2.7,9.8,11.9v26.9c0,9.4-9.3,7.7-9.2,9.2c0,0.8-0.1,2.2,0.4,2.2l33.2,0
				c0.2,0,0.6-2.7,0-2.7c-8.4-0.8-8.2-5.3-8.2-10.6v-20.5c0-1.3,2.2-4.3,7-5.8c12.3-3.9,12.9,4.6,15.4,4.5c2-0.1,3.6-11,3.4-12.6
				c-0.8-7.5-8.7-9.1-13.8-6.5c-6.7,3.4-10.4,12.2-12.2,15.5c-0.1,0.1,0.7-16.4,0.4-16.4l-26.2,1.5L563,268.6z"/>
			<path class="st0" d="M559.9,287.5c1.7,0,1.2-1.3,1.1-2.2c-5.2-20.5-24.3-25.9-38.7-19.6c-10.5,4.5-17.7,14.6-17.7,27.7
				c0,4.2,1.3,8.6,2.7,11.9c1.4,3.3,3.5,6.1,6.1,8.5c2.6,2.3,5.6,4.1,9.1,5.4c15.2,5.4,31.3-1,38.4-15.2c0.9-1.9,0.3-2.3-0.3-1.7
				c-19.9,21.2-33.7,9-37.6-2.3c-2.1-6.2-1.9-12.3-1.8-12.3L559.9,287.5L559.9,287.5z M521.1,284.3c-0.2,0,0.8-15.6,11.6-16.6
				c8.8-0.8,15.3,16.5,11,16.5L521.1,284.3z"/>
			<path class="st0" d="M436.8,317c0,0.8-0.4,2.4,1,2.4c12.5,0.1,14.5,1.6,15.8,1.7c10.5,0.8,21.5-0.7,27.3-3.1
				c8-3.3,13.2-8.8,16-16.9c4.8-14-2-33.1-17.5-36.8c-18.6-4.4-27.3,13.7-27.2,5.6l0.4-39.3l-24,1.6l0.1,2.1c0,0.6,8.4,3.1,8.4,4.4
				L436.8,317L436.8,317z M452.6,280.6c0-0.9,0-1.8,0.2-2.7c0.5-2.9,8.9-6.2,11.3-6.5c24.5-2.7,23.5,45.3-1.4,45.5
				c-8.4,0.1-10.1-3.9-10.1-11.3V280.6z"/>
			<path class="st0" d="M419.6,240.5c0-1.8-0.4-3.4-1.2-4.8c-0.8-1.4-1.9-2.6-3.3-3.4c-1.4-0.8-3-1.3-4.8-1.3c-1.9,0-3.5,0.5-5,1.4
				c-1.4,0.9-2.5,2-3.3,3.5c-0.8,1.4-1.2,2.9-1.2,4.5c0,1.7,0.4,3.2,1.3,4.6c0.8,1.4,1.9,2.5,3.4,3.3c1.4,0.8,3,1.2,4.9,1.3
				c1.9,0,3.5-0.5,4.9-1.4c1.4-0.9,2.5-2,3.2-3.3C419.2,243.4,419.6,242,419.6,240.5z"/>
			<path class="st0" d="M402.8,304.8c-0.1,1.9-0.1,7.2-2,8.6c-1.7,1.2-6.9,3.1-6.9,3.3c0.1,1.5,1,1.7,2.3,1.7l24.6-0.1
				c1.4,0,3.2,0.4,4.6-0.1c1.4-0.5,0.7-2.5-0.8-2.5c-7,0-5.3-6.6-5.5-10.5c-1.1-26.4-0.5-36.4-0.5-41.1c0-1.1-17.8,0.7-25.2,1.8
				c-0.8,0.1-0.4,3.1,0.1,3.1c7.1-0.3,10.3,4.8,10.1,10.8L402.8,304.8z"/>
			<path class="st0" d="M337.7,304.8c0,1.4,0,2.7-0.1,3.8c-0.5,7-10.6,6.8-10.5,7.2l0.8,2.6l57.3,0c3.2,0,3.6,0.2,4.3-0.5
				c0.5-0.5,0.7-1.3,0.9-2.5c0.3-5.9,1.2-11.9,1.7-17.8c0-0.5-0.4-0.6-1.1-0.6c-1.4,0-2,2.2-2.6,3.2c-3,5.6-5.4,9.8-11.4,12.6
				c-4.1,1.9-13.7,2.7-17.8,0.1c-1.5-1-2.6-2.4-3.3-4.3c-0.6-1.9-0.9-4.3-0.9-7.1v-51.2c0-1.3,0.1-2.1,0.2-3.1c0.1-1,0.4-2,0.8-2.8
				c0.4-0.8,1.3-1.6,2.3-2.1c0.6-0.3,6.1-2.8,8.4-4c1-0.5,0.8-0.9,0.3-0.7l-38.4-0.1c-0.4,0-1.8,0-2.2,0.1c-0.4,0.1-0.1,1.5,0.3,1.6
				c4.4,1.5,10.1,2.5,10.4,8.1c0.1,1.1,0.1,2.3,0.1,3.7L337.7,304.8z"/>
			<rect x="327.2" y="344.7" class="st1" width="319.1" height="4.9"/>
			<rect x="692.6" y="344.7" class="st1" width="66.4" height="4.9"/>
			<path class="st0" d="M663.3,396.4c-3.5,0-6.7,0.4-9.6,1.2c-2.9,0.8-5.5,1.7-7.7,2.9c-2.2,1.1-4,2.3-5.4,3.5
				c-1.8,1.4-3.5,3.1-4.9,5c-1.5,2-2.6,4.2-3.5,6.7c-0.9,2.5-1.3,5.3-1.3,8.3c0,2.4,0.5,4.9,1.4,7.4c0.9,2.5,2.2,4.8,3.8,7
				c1.6,2.2,3.4,4,5.5,5.6c1.8,1.3,3.8,2.5,6,3.6c2.2,1,4.5,1.8,6.9,2.3c2.3,0.6,4.6,0.9,6.7,0.9c2.2,0,4.4-0.2,6.7-0.5
				c2.3-0.4,4.5-1,6.7-1.7c2.2-0.8,4.3-1.8,6.2-3.1c1.3-0.8,2.7-1.9,4.2-3.2c1.5-1.4,2.8-3,4.1-4.9c1.3-1.9,2.3-4,3.1-6.3
				c0.8-2.3,1.2-4.9,1.2-7.7c0-3.4-0.6-6.5-1.8-9.3c-1.1-2.8-2.7-5.3-4.7-7.5c-2-2.2-4.3-4-6.8-5.6c-2.6-1.5-5.3-2.7-8.1-3.5
				C669,396.8,666.2,396.4,663.3,396.4L663.3,396.4z M665.7,401c4.2,0.8,7.7,3.6,9.6,7c2.1,3.7,2.4,9.5,2.3,13.6
				c-0.2,5.5-0.5,13.7-3.8,18.4c-1.6,2.2-3.6,5.6-8.3,6.1c-12.6,1.4-16.4-7.9-17.7-16.4c-0.8-4.9-0.4-13.4,1.1-17.7
				C651.2,405.1,657.3,399.3,665.7,401z"/>
			<path class="st0" d="M445.8,409.7c-2.8,7-2.3,11.3,1.1,17.1c2.3,4,8.2,5.7,10.5,6.5c1,0.4,2,1.1,0.8,1.7c-1.4,0.7-6,2-9.9,3.9
				c-4.6,2.2-7.2,11.5,0.9,15.6c4,2,9.4,1.6,8,3.7c-0.4,0.6-3,0.7-6.4,1.8c-8.5,3-10.2,7.9-10.3,11.8c-0.1,6.6,8,12.2,17.9,14.8
				c4.9,1.3,10.5,1.6,15.2,1.6c3.2,0,8.4-0.7,12.3-2.1c6.1-2.2,10.9-5.8,14.5-10.6c4-5.4,5.2-13.1-1.5-20c-8.3-8.4-25.9-8-36.7-9.9
				c-9.9-1.8-5.2-10,2.9-9.5c3.7,0.2,10,0.5,14.5-0.6c14.1-3.6,25.2-15,11.7-29c-0.1-0.1,0-0.4,0.1-0.7c0.1-0.3,0.4-0.4,0.7-0.4
				l11,0l0.3-7.7l-1-1.1l-34.8-0.1c-2.7,0-5.8,0.4-8.1,1.3C454,399.7,448.1,404,445.8,409.7L445.8,409.7z M452.3,466.3
				c-1.8-9.6,43.1-11.1,42.1,5.7c-0.3,5.7-12.7,7.8-20.9,6.9C464.7,477.8,454,475.3,452.3,466.3L452.3,466.3z M462.4,403.9
				c5.3-4.9,14-4.7,18.4,3.1c3.9,6.9,4.1,17.9-4,23.4c-4.9,3.3-12.1,1.3-15.1-2.8c-1.6-2.2-2.6-4.9-3.2-7.6
				C457.6,415.2,458.1,407.7,462.4,403.9z"/>
			<path class="st0" d="M329.1,393.4c1.5,11.6,8.1,16.9,14.6,21.1c3.8,2.4,8.4,5.2,12.2,7.1c9.2,4.6,16.4,13.6,6.4,21.3
				c-3.5,2.7-8.9,3.4-13.7,2.5c-2.5-0.5-4.8-1.9-6.8-2.6c-9.8-3.7-9.4-16-10.5-17.2c-0.5-0.6-3.2-0.3-3.5-0.3
				c-0.2,0,0.2,23.7,0,25.1c-0.1,0.5,2.1,0.4,2.7,0.2c1.9-0.5,1.5-4.3,2.3-4.2c7.3,0.9,11.5,5.4,23.3,4.3c2.3-0.2,4.9-0.7,7-1.4
				c4-1.3,9.1-4.3,11.5-7.6c5.6-7.8,5.8-18.2,1.2-26.1c-1.2-2.1-3-3.7-5.5-5.9c-7.7-6.6-24.9-11.1-29-19.2
				c-9.5-18.8,25.9-22.6,30.7-2.1c0.1,0.2-0.1,2,0.2,2c0.7,0,2.1-0.1,2.6,0.1c0.8,0.4,0.5-1.9,0.5-2.7l0-17.6c0-2.4-2.2-1.7-3.3-0.6
				c-1,1.1-2.5,1.7-3.5,1.9c-1.9,0.4-4.5,0.1-5.9-0.5c-5.7-2.6-14.7-1.9-21.3,0.9C334.1,374.7,327.7,382.4,329.1,393.4z"/>
			<path class="st0" d="M435.8,419.1c1.6,0,1.1-1.2,1-2.1c-4.9-19.5-23.2-24.7-36.9-18.7c-10,4.3-16.8,13.9-16.9,26.4
				c0,4,1.2,8.2,2.6,11.4c1.4,3.1,3.3,5.9,5.8,8.1c2.5,2.2,5.4,3.9,8.7,5.1c14.5,5.2,29.9-0.9,36.6-14.5c0.9-1.8,0.2-2.2-0.3-1.7
				c-19,20.2-32.1,8.6-35.9-2.2c-2-5.9-1.9-11.8-1.7-11.8L435.8,419.1L435.8,419.1z M398.8,416c-0.2,0,0.7-14.9,11-15.9
				c8.4-0.8,14.6,15.8,10.5,15.8L398.8,416z"/>
			<path class="st0" d="M576.1,448.4c-8.7,0.9-16.7,1.3-22.9,1l0-10c0-0.4-0.1-0.7-0.1-1.1c-8.2,10.1-21.6,14-30.1,9.6
				c-3.7-2-8.1-6.1-8.1-10.7l0.1-27c0-4.2,0-6.2-0.8-7c-1-1-1.3-1.5-6.4-1.9l0.1-2.9c6-0.5,18.4-2.1,22.3-2.3l0,27
				c0,8.9,0.6,15.5,4,18.1c5.9,4.4,18.1-2.6,18.9-9.2c0.4-1.9,0.8-8.9,0.8-19.4c0-6.1-0.9-9.8-1.7-10.7c-0.8-0.9-2.2-0.7-7.5-1.2
				l0.4-3c7.4-0.7,15.6-0.6,22.6-1.7l0.2,34.7c0,4.7-0.5,9.5,2.2,12.5c1.1,1.2,2.9,2.1,5.4,2.6C576.7,446.2,576.3,446.9,576.1,448.4
				z"/>
			<path class="st0" d="M579.3,401.2c0.2,2.1,9.4-3.8,9.4,10.8v26c0,9.1-8.9,7.3-8.8,8.7c0,0.8-0.2,2.3,0.3,2.3l32.1,0
				c0.2,0,0.5-2.6,0-2.6c-6.8-0.6-8.6-5.1-8.6-10.3v-17.9c0-1.3,2.8-6.2,7.4-7.6c11.9-3.8,13,4.8,15.5,4.7
				c1.2-5.7,3.6-12.4,3.4-13.9c-0.4-3.6-3.3-5-6.3-5.1c-10-0.3-15.6,8.2-20.1,16c-0.1,0.1,0.8-16.4,0.5-16.4l-25,2.7L579.3,401.2z"
				/>
			<path class="st0" d="M698.4,413.2c0.9,11.3,10.9,12.4,20.8,16.4c11.7,4.6,10.5,12.1,4.6,15.3c-4.9,2.7-13.1,2.4-18.4-4.4
				c-2.7-3.5-3.8-7.7-5.5-9.3c-0.4-0.4-2.4-0.2-2.7-0.2c-0.2,0-0.1,18.6-0.2,19.4c-0.2,1.6,4.6-3.4,5.4-3.3
				c6.1,0.1,12.7,4.1,18.9,2.6c12-2.9,15.5-9,15.7-17.7c0.1-6.6-4.9-12.7-12.9-15.7c-4.5-1.7-10.7-3.7-13.9-6.3
				c-7.2-5.8,2-11.2,10.9-8.3c10.4,3.4,9.9,10.2,10.1,10.2c0.5,0,1.9-0.2,2.2,0c0.6,0.2,0.4-9,0.3-14.9c0-1.1-1-0.9-1.8-0.5
				c-0.2,0.1-0.7,0.6-0.9,0.7c-1.6,0.9-5.3,0.8-7,0.2c-4.4-1.7-11.5-1.5-16.6,0.4C702.1,399.9,697.8,405.9,698.4,413.2z"/>
			<path class="st1" d="M187.2,358c4.8,7.8,10.3,22.6,12.4,23.6c1.6,0.8,4.7,1.2,5,3.1c-15.4,5.6-33.9,13.4-46.9,24.8
				c2.8-11.4,5.6-22.1,7.9-33.4c0.9-4.9,2.7-10.8,8.5-15C179.9,356.9,183,357.8,187.2,358L187.2,358z M187.2,352.1
				c-5-9.4-6.6-14.7-9.3-18.1c-2.5-3.6-15.7-1.7-22.9,2.4c-7.3,4.1-8.7,8.4-13,19.1c-5.3,13.4-3.3,30.6-2.8,46.2
				c0.4,11.7-2.7,23.4-6.2,34.8c7.9-6.9,10.6-13.3,17.1-24c6.3-10.4,7.2-32.5,9.8-41.9c2.2-7.9,6.6-12.2,11.6-15.5
				C176.5,351.7,181.6,351.9,187.2,352.1L187.2,352.1z M101.6,203.9c-1.6,0.3-1.7,2.3-1.3,3.6c0.4,1.3,0.8,3.2,2.5,4.2
				c1.7,1,6.6,0.8,7.6,2.8c0.5,3.6,0.7,13.8,1.6,17.9c0.5,2.3,3.8,1.3,4.4,2.6c0.3,1.9-1.6,0.3-1.8,2.5c-0.3,2.8-0.9,6.2-0.2,7.5
				c0.3,2.1,0.5,0.3,0.9,2.8c1.4,20.1-1.9,40.7,2.6,60.3c4.2,12,8,24,16.3,48c1.1,2.2,3-15.1,9.9-21.2c4.8-4.7,14.3-8.4,17.6-9.4
				c-1-2.6-6-12-7-16c-1.1-4-0.4-8.1-0.9-10.9c-0.4-2.8,0.3-0.3-1.8-5.5c-6-15.4-23.3-67-30.6-82.4c-0.6-1.4-4.7-1.7-6.3-3
				c-0.8-0.4-1.7-1.8-2.8-2.2C106.6,205.8,103.9,203.5,101.6,203.9L101.6,203.9z M93.1,247.5c0.5-4-0.4-14.3,0.2-18.1
				c0.9-2.7,2.3-1.5,3.4-2.4c1.3-0.3,2.4,0.1,3.4-0.4c1-0.5-0.5-4,1.7-2.5c3.7,1.5,7.1,5.3,7.7,9.8c0.3,3.8,1.4,10.3,1.6,13.8
				c0.5,3.1,1.5,1.3,1.8,2.5c-0.3,1,0.5,4.2-1.3,4.3c-2.2-0.1-5.5-3.4-9.3-3.5c-3.1,0-7.5,0.6-8.1,2.3c-0.2,0.6,1.3,3.8,4.1,4.4
				c1,0.2,0.4,0.5-1.9,0.7c-6.4-1.1-6.2-5.7-6.1-8.1C90.2,248.7,91.9,250.1,93.1,247.5L93.1,247.5z M85.7,209.1
				c-2.4,1.5-2.8,3.2-3.4,5.3c-0.5,2.1-1.3,4.9-0.3,6.5c1,0.9,4.1-1.5,4.2,0.7c0.1,1.8-3,3.4-3,5.5c0,1,0.8,1.3,1.4,2.3
				c0.7,1.1,1.2,2.6,2.2,2.5c1.5-0.3,2.4-5,4.2-5.9c1.4-1,3.3-0.1,4-1.5c0.9-1.3-0.8-3.6,0-4.9c0.8-1.3,2.5,0.4,3.5-0.7
				c0.7-1,1.2-3.7,0.4-4.5c-0.9-1.3-4.7-0.6-5.4-1.4c-0.9-0.8,1.7-0.3,2.3-1.5c0.4-1.1,1-4.3-0.9-5.4
				C92.8,205.8,88,208.2,85.7,209.1L85.7,209.1z M87,202.1c-1.5-1.1,0.1-5.6,0.9-5.8c1.8-1.7,5.1-4.1,8.4-4.9
				c3.5-0.8,8.4-0.3,12,0.5c3.5,0.9,5.1,2.6,6.8,4.3c1.7,1.7,3.5,6.7,2,6.8c-2-0.1-5.9-4.9-9.3-5.3c-3.1-0.7-6.7-1.5-10.4-0.9
				C93.3,197.3,89.1,201.9,87,202.1L87,202.1z M72.6,184.4c1.2-2.4-1-6.8-0.3-8.3c2.4-0.3,4.5,1.8,6.6,0.7c2.2-1.1,2.9-5.9,4.3-6.9
				c1.4-1.1,2.4,0.7,4,1c1.6,0.3,5.1,0.8,7.5,0.1c2.3-0.6,4.3-3,5.8-3.5c1.6-0.7,1.6-0.8,3.2,0c1.6,0.6,2.8,3.1,4.9,3.8
				c2.1,0.7,4.1,0.3,5.6-0.1c1.4-0.4,3.2-1,4.1-1.4c0.8-0.3,1.6-1.2,2.3,0.1c1.1,1.5,0.7,6.1,2.4,7.5c1.7,1.5,3.6,0.1,4.8-0.1
				c1.1-0.3,1.4-1.5,2-1.6c0.5-0.1,0.7-0.3,1,1.2c0.3,1.6-0.1,6.2,0.3,8c0.4,1.8,1.9,0.4,2.2,2.6c0.2,2.4,0.8,5.2,0.4,10.8
				c-3.8-7.1-7.6-10.1-13.3-12.9c-5.7-2.9-13.6-3.7-20.1-3.7c-14.9,0-37,8.7-21.5,26.7c-10-1.2-10.2-13.1-9.3-19.2
				C70,184.8,71.9,186.7,72.6,184.4L72.6,184.4z M198.8,314.3c1.9-2.3,5.4-4.2,10.8-4.1c5.4,0.1,10.1,3,12.6,4.9
				c1.9,1.4-0.4,1.7-2.2,2.3c-1.3,0.3-1.2,0.6-2.7,0.6c-2.2,0-2.1,0.2-2.3-0.1c-0.6-1.1-3.7-1.2-6.5-1.2c-2.7-0.1-3,1-2.9,1.8
				c0.1,1.3-1.3,3.8-3,1.6C200.8,317.9,196.7,316.5,198.8,314.3L198.8,314.3z M181.5,313c0.4-0.7-0.1-2,0.4-2.9
				c0.4-1.1,1.4-2.1,2.6-3.1c1.3-1.2,2.4-3.8,3.7-4.3c2.1-1,4.1,0.3,2.9,2.6c-0.4,0.9-1.4,1-2.4,1.8c-0.9,1-2.3,1.8-2.7,3.6
				c-0.5,1.6-0.7,4-0.4,5.2c0.2,1.1,0,3.4,0.5,3.7c1.2-0.3,4.1-3.9,5.4-3.2c1.3,0.3,1,0,0.9,2.3c0.4,1.6-1.2,10.3-1.3,12.6
				c-0.2,2.1,1.5,1.8,3.5,1.8c2.1,0.1,4.2,0.5,4.6,1.6c0.7,1.7,0.3,0.9-0.1,1.3c-0.4,0.5-1.3,1.6-2.6,1.8c-2.4,0.3-2.6,1.3-2.3,2.7
				c-0.4,0.8,0.1,0.9,0.5,1c0.5,0.1,1-0.2,1.9-0.3c1,0,2.8-0.1,4.1,0.2c1.4,0.2,3.1,1,3.8,1.4c0.7,0.5,0.1,0.6-0.8,0.8
				c-0.9,0.1-2.8,0-4.2,0c-1.4,0-3.2-0.2-4.1,0.2c-0.9,0.3-0.8,1.2-0.8,1.7c0,0.6-0.4,1.2,0.8,1.4c1.2,0.1,4.4-0.6,5.6-0.5
				c1.3,0,1.2,0.8,1.4,1.2c0.3,0.4,0.6,0.2-0.3,0.8c-1.1,0.5-3.8-0.1-4.8,1.6c-0.8,1.8-0.5,5.7-0.3,7.4c0.5,1.5,0.9,1.8,3,2.1
				c2.2,0.2,6.6-0.2,9.2-0.8c2.6-0.5,4.2-2.4,5.7-2.2c0.2,1.1,0,1.4-0.1,2.9c-4.3,3-8.1,6.8-6.7,12c0.5,2.2,0.7,12,3.4,11.6
				c3.5-3.5,41-12.3,41.8-11.4c0.7-2.7-12-31.1-12.6-33.3c-0.5-2.4-1.7-5.8,2.2-6.4c1.4-0.5,2.8,0.5,5-0.2c2.2-0.6,4.3-3.4,5.8-5.1
				c1.2-1.6,1-3.1,0.5-4.1c-1.2-2.5-2.3,1.2-3.7,2.1c-0.9,0.5-2.7,0.7-3.8-0.1c-1.1-0.9,0.1-3.7-0.1-4.4c-0.3-0.8,0.2-0.5-1.2-0.6
				c-1.4,0-3.6,2.2-7.1,0.2c-3.7-2.1-9.2-8.9-13.5-11.6c-4.4-2.8-7.1-3.8-12.3-4.7c-5.2-0.8-14.5,0.6-18.6-0.1
				c-1.5-1.6-1.6-1.9-3.2-3c-0.4-1.5,1.3-1.5,2.1-1.5c0.9,0,0.1,1.4,1.4,1.4c1.3,0,1.8-1.2,5.7-1.5c3.9-0.2,11.7-0.8,16.9-0.3
				c5.3,0.7,7,1.5,11.3,4c3.5,2.1,6,8.9,11.6,10.9c4.3,1.5,9,2.2,11.5,1c2.4-0.4,2.2-1.9,0.9-3.5c-1.4-1.5-5.7-5.2-7.1-6.6
				c-1.4-1.4-0.8-0.8-0.3-1.9c0.5-1.1,2.2-3,3.4-3.8c1.2-0.8,1.8-0.7,3.3,0.4c1.5,1.1,3.9,4.5,5.1,5.6c1.7,2.1,3.5,2.8,3,0.7
				c-0.8-1.6,0.3-5.1-5.1-10.2c-5.1-4.8-18.3-16.8-27.8-20.3c-9.6-3.7-18.7-4.1-26.5-1.8c-8.3,1.9-14.6,9.3-16.8,14.6
				c-1.1,2.2,0.3,9.8-0.5,12.8c-0.9,2.9-2.9,3-3.4,5.2c-0.7,2.2,0.3,6.3,0.7,7.6C180.4,313.9,181.1,313.6,181.5,313L181.5,313z
				 M187.4,294.8c-0.1-1.3,0.4-4.8,1.5-6.3c1.1-1.5,2.1-4.9,4-4c0.5,1.5,2.1,4.7,2.5,6.3c-2.4,1.4-5.3,3.2-6.2,4.8
				C187.6,295.9,187.6,296.1,187.4,294.8L187.4,294.8z M198.7,280.3c-0.5-1.2,8.6-2.3,12.3-2.3c3.8,0,10,1.2,9.4,2.4
				c-0.4,1.8-0.6,5.8-1.6,8.2c-0.6,0.9-5.5-0.3-9.3-0.3c-3.8,0-7.4,1.1-8.8,0.2C199.4,286,199,282.8,198.7,280.3L198.7,280.3z
				 M228.2,282.9c2.9,1.3,10.3,5.2,13,7.2c1.8,1.4,2,2.6,1.6,3.9c-0.4,1.3-2.5,3.6-3.5,4.4c-1.1,0.9,0.5,1.4-2.2,0.3
				c-1.8-1.7-8.3-4.9-12-6.7c-0.2-2.3,1.4-5.1,1.3-7C227,283.4,227.8,282.5,228.2,282.9L228.2,282.9z M180.9,283.5L154,235.6
				l36,35.7C186.4,274.3,181.9,278.8,180.9,283.5L180.9,283.5z M260.9,294.3c14-6,35.7-13.4,49.5-19.2
				c-11.6,9.9-31.8,23.3-43.4,33.3C265.7,303.8,264.5,297.7,260.9,294.3L260.9,294.3z M237.8,273.8l42.6-44.2L251.5,284
				C248.5,280.7,242.6,276.5,237.8,273.8L237.8,273.8z M205.8,265.7l7-69l9.1,70.2C216,265.3,212.5,265.1,205.8,265.7L205.8,265.7z
				 M273.8,366.1c1.3,2.8-7.3,3-11,0.3c-3-4.7-10.3-18.5-12.4-23.9c-0.3-1.8,0.2-5,3-7.4c2.4-2.4,2.8-4.9,6.5-6.4
				c0.9-0.4-0.9,5.5,1.9,14.1C264.9,352.4,272.1,363.7,273.8,366.1L273.8,366.1z M161.5,294.8l13.6,6.5c-0.2,2.3-1.4,8.4-1.8,11.1
				l-11.6-6.7C161.3,301.9,161.3,298.3,161.5,294.8L161.5,294.8z M125.3,440.4c-48.2-61.5-18.6-163.1-17.1-156.1
				c0.6,9,0.5,17.7,2.3,25.8c3.2,14.5,9.8,27.6,13.8,43.2c10.4,36.2,8,65.8,3.5,84.2c-0.1,0-0.2,0.1-0.2,0.2
				C126.9,438.2,126.1,439.2,125.3,440.4L125.3,440.4z M145.1,454.5c4.8-9.8,8-12.7,13.8-20.1c3.1-4,13.2-15.8,25-25.9
				c12.9-11,27.7-17.1,38.3-23.1c5.3-3-37.3,7-63.3,35.9c-10.2,11.3-21.7,25.3-22.1,30.4C136.7,454.2,143.3,458.2,145.1,454.5
				L145.1,454.5z M159.4,460.6c27.9-50.9,76.1-77.6,127.6-80.7l0.3-4c-29.4,1.3-45.6,6.9-66,16.1c-24.1,11.9-54.2,38.3-68,67
				C153.9,460.8,158.5,463.5,159.4,460.6L159.4,460.6z M289.5,368.7c-1.5-24.4-0.3-45-4-67.8c-3.9,3.7-16.4,8.6-19,20.1
				c-6.6,29.9,12.4,33.3,15.1,48C284.8,368.6,285.8,368.6,289.5,368.7L289.5,368.7z M269.6,262.7c6.4,9.7,10.4,17.7,7.3,19.1l-18,8
				l-2.2-3C259.6,279.7,266.1,269.3,269.6,262.7L269.6,262.7z M255.8,245.5c2-1.6-18.7,21.1-23.6,25.3l-4.8-2.1l-5.4-44.6
				C234,228.1,247,236.9,255.8,245.5L255.8,245.5z M204.6,220.7c0,0-0.3-1.4,0.1-1.3c0.4,0-2.3,0.1-0.7,0.5l-3.9,47.2l-4.8,1.6
				l-7.3-6.1l-5-4.2l5.8,4.5l-34.8-34.4C168.9,220.7,186.6,218.8,204.6,220.7L204.6,220.7z M146.4,233.2
				c5.5,10.2,12.6,22.5,19.2,34.7c5.8,10.7,11.5,21.3,11.9,30.7c-8-3.7-11.3-8.3-16.2-6.8c-5.3-15.5-11.9-34.9-18.8-48.9
				c-1.7-3-2.8-5.3-0.4-7.2C143.7,234.5,144.8,234.4,146.4,233.2L146.4,233.2z M82.7,152.8c0-6.2,2.7-11.9,10-13.8
				c7.3-1.8,20.7,0.5,26.1,0c3.6-1.8,2.6-4,4.5-2.3c0.2,1.6-2.3,4.8-1,6.3c1,1.6,2.2,1.1,5,1.3c2.9,0.3,8.1,0.8,11.4-0.1
				c3.8-0.4,5.5-7.4,6.7-5.4c1.8,2.9,0.7,8.3-2,11.2c-2.7,2.9-7.7,3.5-11.6,5.2c-3.8,1.6-7.6,2.4-10,4c-2.4,1.7-2,4.4-3.5,4.8
				c-1.5,0.3-2.4-2.6-4.2-2.6c-1.7,0-3.3,3-6.1,2.6c-2.8-0.5-5.3-5.2-9-5.3c-3.8,0-5.2,5.3-9.2,4.4
				C85.9,162.3,82.7,158.9,82.7,152.8z"/>
		</g>
	</g>
</g>
</svg>
