<?xml version="1.0" encoding="utf-8"?>
<!-- Generator: Adobe Illustrator 22.1.0, SVG Export Plug-In . SVG Version: 6.00 Build 0)  -->
<svg version="1.1" xmlns="http://www.w3.org/2000/svg" xmlns:xlink="http://www.w3.org/1999/xlink" x="0px" y="0px" width="537.3px"
	 height="106.8px" viewBox="0 0 537.3 106.8" style="enable-background:new 0 0 537.3 106.8;" xml:space="preserve">
<style type="text/css">
	.st0{fill:#FFFFFF;}
</style>
<g id="Capa_1">
	<g>
		<g>
			<g>
				<g>
					<path class="st0" d="M79,36.7c-0.1-0.1-5.3-13.2-17.7-29.4c-0.1-0.1-0.2-0.1-0.3-0.1c-0.1,0-0.2,0-0.3,0.1
						c-0.2,0.2-23.4,19.6-35.3,54.9c-0.1,0.2,0,0.4,0.2,0.5c0,0,0.1,0,0.1,0c0.1,0,0.3-0.1,0.3-0.2c0.1-0.2,11.4-24.4,36.8-46.6
						c1.3,1.5,7.4,9.1,15.4,21.2c0.1,0.2,0.3,0.2,0.5,0.1C78.9,37.1,79,36.9,79,36.7z"/>
					<path class="st0" d="M80.6,52.4c-0.1-0.1-5.3-13.2-17.7-29.4c-0.1-0.1-0.2-0.1-0.3-0.1c-0.1,0-0.2,0-0.3,0.1
						C62.1,23.1,39,42.5,27,77.8c-0.1,0.2,0,0.4,0.2,0.5c0,0,0.1,0,0.1,0c0.1,0,0.3-0.1,0.4-0.2c0.1-0.2,11.4-24.4,36.8-46.6
						c1.3,1.6,7.5,9.1,15.4,21.2c0.1,0.2,0.3,0.2,0.5,0.1C80.6,52.8,80.6,52.6,80.6,52.4z"/>
				</g>
				<path class="st0" d="M79.2,81.4c-0.5,0.2-1,0.4-1.6,0.5c-0.6,0.1-1.2,0.3-1.9,0.3c-0.7,0.1-1.4,0.1-2.1,0.1
					c-2,0-3.7-0.4-5.1-1.2c-1.4-0.8-2.5-1.9-3.2-3.3c-0.7-1.4-1.1-3.1-1.1-5.1c0-1.6,0.2-3.1,0.7-4.3c0.5-1.2,1.1-2.2,2-3
					c0.8-0.8,1.8-1.4,3-1.8c1.1-0.4,2.3-0.6,3.7-0.6c1.2,0,2.3,0.1,3.2,0.3c0.9,0.2,1.7,0.5,2.4,0.8l1.4-5.2
					c-0.4-0.2-0.9-0.4-1.6-0.6c-0.7-0.2-1.5-0.4-2.5-0.5c-0.9-0.1-2-0.2-3.2-0.2c-1.8,0-3.5,0.2-5.1,0.7c-1.6,0.4-3.1,1.1-4.4,1.9
					c-1.3,0.9-2.5,1.9-3.5,3.2c-1,1.3-1.7,2.7-2.3,4.3c-0.5,1.6-0.8,3.5-0.8,5.5c0,2.1,0.3,4.1,1,5.8c0.7,1.8,1.6,3.3,2.9,4.7
					c1.3,1.3,2.9,2.4,4.8,3.1c1.9,0.7,4.1,1.1,6.7,1.1c1.2,0,2.3-0.1,3.3-0.2c1-0.1,1.8-0.3,2.6-0.5c0.7-0.2,1.3-0.4,1.7-0.6
					L79.2,81.4L79.2,81.4z"/>
				<path class="st0" d="M93.8,65.6c-1.7,0-3.3,0.3-4.7,0.8c-1.4,0.5-2.6,1.3-3.6,2.3c-1,1-1.8,2.2-2.3,3.6c-0.5,1.4-0.8,3-0.8,4.7
					c0,1.7,0.3,3.3,0.9,4.6c0.6,1.4,1.3,2.5,2.3,3.5c1,1,2.2,1.7,3.5,2.2c1.3,0.5,2.8,0.7,4.4,0.8c1.2,0,2.3-0.1,3.4-0.4
					c1.1-0.3,2.1-0.7,3.1-1.3c0.9-0.6,1.8-1.3,2.5-2.2c0.7-0.9,1.3-2,1.7-3.2c0.4-1.2,0.6-2.6,0.6-4.2c0-1.6-0.3-3.1-0.8-4.4
					c-0.5-1.3-1.3-2.5-2.2-3.5c-1-1-2.1-1.7-3.4-2.3C96.9,65.8,95.5,65.6,93.8,65.6L93.8,65.6z M93.6,70.3c0.8,0,1.4,0.2,1.9,0.6
					c0.5,0.4,1,0.8,1.3,1.5c0.3,0.6,0.6,1.3,0.7,2c0.2,0.7,0.2,1.5,0.2,2.3c0,1.3-0.2,2.4-0.5,3.4c-0.3,1-0.8,1.7-1.5,2.2
					c-0.6,0.5-1.4,0.8-2.3,0.8c-0.9,0-1.7-0.3-2.4-0.8c-0.7-0.6-1.1-1.3-1.5-2.3c-0.3-1-0.5-2.1-0.5-3.3c0-0.8,0.1-1.6,0.2-2.3
					c0.2-0.8,0.4-1.5,0.8-2.1c0.4-0.6,0.8-1.1,1.4-1.5C92.2,70.5,92.8,70.3,93.6,70.3L93.6,70.3z"/>
				<path class="st0" d="M118.3,65.6c-1.7,0-3.3,0.3-4.7,0.8c-1.4,0.5-2.6,1.3-3.6,2.3c-1,1-1.8,2.2-2.3,3.6c-0.5,1.4-0.8,3-0.8,4.7
					c0,1.7,0.3,3.3,0.8,4.6c0.6,1.4,1.3,2.5,2.3,3.5c1,1,2.2,1.7,3.5,2.2c1.3,0.5,2.8,0.7,4.4,0.8c1.1,0,2.3-0.1,3.4-0.4
					c1.1-0.3,2.1-0.7,3.1-1.3c0.9-0.6,1.8-1.3,2.5-2.2c0.7-0.9,1.3-2,1.7-3.2c0.4-1.2,0.6-2.6,0.6-4.2c0-1.6-0.3-3.1-0.8-4.4
					c-0.5-1.3-1.3-2.5-2.2-3.5c-0.9-1-2.1-1.7-3.4-2.3C121.4,65.8,119.9,65.6,118.3,65.6L118.3,65.6z M118.1,70.3
					c0.7,0,1.4,0.2,1.9,0.6c0.5,0.4,1,0.8,1.3,1.5c0.3,0.6,0.6,1.3,0.7,2c0.2,0.7,0.2,1.5,0.2,2.3c0,1.3-0.2,2.4-0.5,3.4
					c-0.3,1-0.8,1.7-1.5,2.2c-0.6,0.5-1.4,0.8-2.3,0.8c-1,0-1.7-0.3-2.4-0.8c-0.6-0.6-1.1-1.3-1.5-2.3c-0.3-1-0.5-2.1-0.5-3.3
					c0-0.8,0.1-1.6,0.2-2.3c0.2-0.8,0.4-1.5,0.8-2.1c0.4-0.6,0.8-1.1,1.4-1.5C116.6,70.5,117.3,70.3,118.1,70.3L118.1,70.3z"/>
				<path class="st0" d="M131.4,87.4h6.5V75c0-0.3,0-0.6,0.1-0.9c0-0.3,0.1-0.6,0.2-0.8c0.1-0.4,0.3-0.7,0.6-1.1
					c0.3-0.4,0.6-0.7,1-0.9c0.4-0.2,0.9-0.4,1.5-0.4c0.7,0,1.3,0.2,1.8,0.6c0.5,0.4,0.8,0.9,1,1.6c0.2,0.7,0.3,1.5,0.3,2.4v12h6.5
					V74.9c0-0.3,0-0.6,0.1-0.9c0-0.3,0.1-0.6,0.2-0.8c0.2-0.4,0.4-0.8,0.7-1.2c0.3-0.4,0.6-0.6,1-0.8c0.4-0.2,0.9-0.3,1.4-0.3
					c1.1,0,1.9,0.4,2.4,1.3c0.5,0.8,0.8,2.1,0.8,3.6v11.6h6.5V74.9c0-1.6-0.2-3-0.5-4.2c-0.4-1.2-0.9-2.1-1.5-2.9
					c-0.7-0.8-1.4-1.3-2.3-1.7c-0.9-0.4-1.8-0.6-2.9-0.6c-0.8,0-1.5,0.1-2.2,0.3c-0.7,0.2-1.3,0.4-1.9,0.8c-0.5,0.3-1,0.7-1.5,1.1
					c-0.5,0.4-0.9,0.9-1.3,1.5h-0.1c-0.3-0.7-0.7-1.4-1.3-1.9c-0.6-0.5-1.2-1-2-1.3c-0.8-0.3-1.6-0.4-2.6-0.5
					c-0.9,0-1.7,0.1-2.4,0.3c-0.7,0.2-1.3,0.5-1.8,0.8c-0.5,0.3-1,0.7-1.3,1.1c-0.4,0.4-0.7,0.8-0.9,1.1h-0.1l-0.3-2.9h-5.6
					c0,1,0.1,2,0.1,3.1c0,1.1,0,2.4,0,3.7V87.4L131.4,87.4z"/>
				<path class="st0" d="M186,78.9c0.1-0.2,0.1-0.6,0.2-1.1c0-0.5,0.1-1,0.1-1.6c0-1.1-0.1-2.1-0.3-3.1c-0.2-1-0.6-2-1-2.9
					c-0.5-0.9-1.1-1.7-1.8-2.4c-0.7-0.7-1.6-1.2-2.7-1.6c-1-0.4-2.3-0.6-3.6-0.6c-1.5,0-2.8,0.2-4,0.7c-1.2,0.4-2.2,1-3,1.8
					c-0.9,0.8-1.6,1.6-2.1,2.6c-0.6,1-1,2-1.3,3.1c-0.3,1.1-0.4,2.2-0.4,3.3c0,2.2,0.5,4.2,1.4,5.8c0.9,1.6,2.2,2.9,3.9,3.8
					c1.7,0.9,3.7,1.3,6.2,1.3c1.4,0,2.8-0.1,4.1-0.3c1.3-0.2,2.5-0.6,3.6-1l-0.9-4.5c-0.9,0.3-1.8,0.5-2.8,0.7c-1,0.2-2,0.2-3.1,0.2
					c-0.8,0-1.5-0.1-2.2-0.2c-0.7-0.2-1.3-0.4-1.9-0.7c-0.5-0.3-1-0.8-1.3-1.3c-0.3-0.5-0.5-1.1-0.6-1.8H186L186,78.9z M172.2,74.3
					c0-0.4,0.1-0.9,0.3-1.4c0.2-0.5,0.4-1,0.7-1.4c0.3-0.4,0.7-0.8,1.2-1.1c0.5-0.3,1.1-0.4,1.8-0.4c0.8,0,1.4,0.2,1.9,0.4
					c0.5,0.3,0.9,0.7,1.2,1.1c0.3,0.4,0.5,0.9,0.6,1.4c0.1,0.5,0.2,0.9,0.2,1.4H172.2L172.2,74.3z"/>
				<path class="st0" d="M185.8,66.1l7.8,21.3h6.6l7.9-21.3h-7l-2.7,9.9c-0.2,0.9-0.5,1.8-0.6,2.6c-0.2,0.8-0.4,1.7-0.5,2.6h-0.1
					c-0.2-0.8-0.3-1.7-0.5-2.5c-0.2-0.8-0.4-1.7-0.7-2.6l-2.9-9.9H185.8L185.8,66.1z"/>
				<path class="st0" d="M227.5,74.8c0-1.3-0.1-2.5-0.5-3.6c-0.3-1.1-0.8-2.1-1.5-2.9c-0.7-0.8-1.7-1.5-2.9-2
					c-1.2-0.5-2.7-0.7-4.5-0.7c-1.3,0-2.5,0.1-3.6,0.3c-1.1,0.2-2,0.5-2.8,0.7c-0.8,0.3-1.5,0.6-2,0.9l1.2,4.3
					c0.5-0.3,1-0.6,1.7-0.8c0.6-0.2,1.3-0.4,2-0.6c0.7-0.1,1.5-0.2,2.2-0.2c0.8,0,1.5,0.1,2,0.3c0.5,0.2,0.9,0.4,1.2,0.7
					c0.3,0.3,0.5,0.6,0.6,0.9c0.1,0.3,0.1,0.6,0.1,0.9v0.3c-1.9,0-3.6,0.2-5.1,0.5c-1.5,0.3-2.8,0.8-3.9,1.5c-1.1,0.7-2,1.5-2.5,2.5
					c-0.6,1-0.9,2.2-0.9,3.6c0,0.9,0.2,1.7,0.5,2.5c0.3,0.8,0.8,1.5,1.3,2.1c0.6,0.6,1.3,1.1,2.2,1.5c0.8,0.4,1.8,0.5,2.9,0.5
					c1.3,0,2.4-0.2,3.5-0.7c1-0.4,1.9-1.1,2.6-2h0.1l0.4,2.1h6c-0.1-0.4-0.2-0.9-0.2-1.4c-0.1-0.5-0.1-1.1-0.1-1.8c0-0.6,0-1.3,0-2
					V74.8L227.5,74.8z M221.1,79.7c0,0.2,0,0.4,0,0.6c0,0.2-0.1,0.4-0.1,0.6c-0.2,0.5-0.4,0.9-0.7,1.2c-0.3,0.4-0.7,0.7-1.2,0.9
					c-0.5,0.2-1,0.3-1.5,0.3c-0.5,0-0.9-0.1-1.3-0.3c-0.4-0.2-0.7-0.5-0.9-0.9c-0.2-0.4-0.3-0.8-0.3-1.4c0-0.8,0.3-1.5,0.8-2
					c0.5-0.5,1.3-0.8,2.2-1.1c0.9-0.2,2-0.3,3.2-0.3V79.7L221.1,79.7z"/>
			</g>
		</g>
		<g id="Horizontal_Completo_10_">
			<g>
				<path class="st0" d="M250.5,86.8c-1,0.5-2.9,1-5.3,1c-5.7,0-9.9-3.6-9.9-10.2c0-6.3,4.3-10.6,10.5-10.6c2.5,0,4.1,0.5,4.8,0.9
					l-0.6,2.1c-1-0.5-2.4-0.8-4.1-0.8c-4.7,0-7.9,3-7.9,8.3c0,4.9,2.8,8.1,7.7,8.1c1.6,0,3.2-0.3,4.2-0.8L250.5,86.8z"/>
				<path class="st0" d="M265.7,80.1c0,5.3-3.7,7.7-7.2,7.7c-3.9,0-6.9-2.9-6.9-7.4c0-4.8,3.2-7.7,7.2-7.7
					C262.9,72.7,265.7,75.7,265.7,80.1z M254.2,80.3c0,3.2,1.8,5.6,4.4,5.6c2.5,0,4.4-2.4,4.4-5.6c0-2.4-1.2-5.6-4.3-5.6
					C255.6,74.6,254.2,77.5,254.2,80.3z"/>
				<path class="st0" d="M268.4,77.5c0-1.7,0-3.2-0.1-4.5h2.3l0.1,2.8h0.1c0.7-1.9,2.2-3.2,4-3.2c0.3,0,0.5,0,0.7,0.1v2.5
					c-0.3-0.1-0.5-0.1-0.9-0.1c-1.9,0-3.2,1.4-3.5,3.4c-0.1,0.4-0.1,0.8-0.1,1.2v7.7h-2.6V77.5z"/>
				<path class="st0" d="M277.6,77.5c0-1.7,0-3.2-0.1-4.5h2.3l0.1,2.8h0.1c0.7-1.9,2.2-3.2,4-3.2c0.3,0,0.5,0,0.7,0.1v2.5
					c-0.3-0.1-0.5-0.1-0.9-0.1c-1.9,0-3.2,1.4-3.5,3.4c-0.1,0.4-0.1,0.8-0.1,1.2v7.7h-2.6V77.5z"/>
				<path class="st0" d="M288,80.7c0.1,3.6,2.3,5,5,5c1.9,0,3-0.3,4-0.7l0.4,1.9c-0.9,0.4-2.5,0.9-4.8,0.9c-4.5,0-7.1-2.9-7.1-7.3
					c0-4.4,2.6-7.8,6.8-7.8c4.7,0,6,4.2,6,6.8c0,0.5-0.1,1-0.1,1.2H288z M295.7,78.8c0-1.7-0.7-4.3-3.6-4.3c-2.7,0-3.8,2.4-4,4.3
					H295.7z"/>
				<path class="st0" d="M313.6,66.2v17.5c0,1.3,0,2.7,0.1,3.7h-2.4l-0.1-2.5h-0.1c-0.8,1.6-2.6,2.8-4.9,2.8c-3.5,0-6.2-3-6.2-7.3
					c0-4.8,3-7.8,6.5-7.8c2.2,0,3.7,1,4.4,2.2h0.1v-8.6H313.6z M311,78.9c0-0.3,0-0.8-0.1-1.1c-0.4-1.7-1.8-3-3.8-3
					c-2.7,0-4.3,2.4-4.3,5.6c0,2.9,1.4,5.3,4.3,5.3c1.8,0,3.4-1.2,3.9-3.1c0.1-0.4,0.1-0.7,0.1-1.1V78.9z"/>
				<path class="st0" d="M330.4,80.1c0,5.3-3.7,7.7-7.2,7.7c-3.9,0-6.9-2.9-6.9-7.4c0-4.8,3.2-7.7,7.2-7.7
					C327.6,72.7,330.4,75.7,330.4,80.1z M318.9,80.3c0,3.2,1.8,5.6,4.4,5.6c2.5,0,4.4-2.4,4.4-5.6c0-2.4-1.2-5.6-4.3-5.6
					S318.9,77.5,318.9,80.3z"/>
				<path class="st0" d="M333.1,77.5c0-1.7,0-3.2-0.1-4.5h2.3l0.1,2.8h0.1c0.7-1.9,2.2-3.2,4-3.2c0.3,0,0.5,0,0.7,0.1v2.5
					c-0.3-0.1-0.5-0.1-0.9-0.1c-1.9,0-3.2,1.4-3.5,3.4c-0.1,0.4-0.1,0.8-0.1,1.2v7.7h-2.6V77.5z"/>
				<path class="st0" d="M343.5,80.7c0.1,3.6,2.3,5,5,5c1.9,0,3-0.3,4-0.7l0.4,1.9c-0.9,0.4-2.5,0.9-4.8,0.9c-4.5,0-7.1-2.9-7.1-7.3
					c0-4.4,2.6-7.8,6.8-7.8c4.7,0,6,4.2,6,6.8c0,0.5-0.1,1-0.1,1.2H343.5z M351.2,78.8c0-1.7-0.7-4.3-3.6-4.3c-2.7,0-3.8,2.4-4,4.3
					H351.2z"/>
				<path class="st0" d="M355.9,84.8c0.8,0.5,2.2,1,3.5,1c1.9,0,2.8-1,2.8-2.2c0-1.3-0.7-1.9-2.7-2.7c-2.6-0.9-3.8-2.4-3.8-4.1
					c0-2.3,1.9-4.2,5-4.2c1.5,0,2.7,0.4,3.6,0.9l-0.7,1.9c-0.6-0.4-1.6-0.8-3-0.8c-1.6,0-2.4,0.9-2.4,2c0,1.2,0.9,1.7,2.7,2.4
					c2.5,1,3.8,2.2,3.8,4.4c0,2.5-2,4.3-5.4,4.3c-1.6,0-3-0.4-4.1-1L355.9,84.8z"/>
				<path class="st0" d="M386.2,66.2v17.5c0,1.3,0,2.7,0.1,3.7H384l-0.1-2.5h-0.1c-0.8,1.6-2.6,2.8-4.9,2.8c-3.5,0-6.2-3-6.2-7.3
					c0-4.8,3-7.8,6.5-7.8c2.2,0,3.7,1,4.4,2.2h0.1v-8.6H386.2z M383.6,78.9c0-0.3,0-0.8-0.1-1.1c-0.4-1.7-1.8-3-3.8-3
					c-2.7,0-4.3,2.4-4.3,5.6c0,2.9,1.4,5.3,4.3,5.3c1.8,0,3.4-1.2,3.9-3.1c0.1-0.4,0.1-0.7,0.1-1.1V78.9z"/>
				<path class="st0" d="M391.4,80.7c0.1,3.6,2.3,5,5,5c1.9,0,3-0.3,4-0.7l0.4,1.9c-0.9,0.4-2.5,0.9-4.8,0.9c-4.5,0-7.1-2.9-7.1-7.3
					c0-4.4,2.6-7.8,6.8-7.8c4.7,0,6,4.2,6,6.8c0,0.5-0.1,1-0.1,1.2H391.4z M399.2,78.8c0-1.7-0.7-4.3-3.6-4.3c-2.7,0-3.8,2.4-4,4.3
					H399.2z"/>
				<path class="st0" d="M410.3,84.3c1.2,0.7,2.9,1.3,4.7,1.3c2.7,0,4.2-1.4,4.2-3.4c0-1.9-1.1-3-3.8-4c-3.3-1.2-5.3-2.9-5.3-5.7
					c0-3.1,2.6-5.5,6.5-5.5c2.1,0,3.6,0.5,4.5,1l-0.7,2.1c-0.7-0.4-2-1-3.8-1c-2.7,0-3.8,1.6-3.8,3c0,1.9,1.2,2.8,4,3.9
					c3.4,1.3,5.1,3,5.1,5.9c0,3.1-2.3,5.8-7.1,5.8c-1.9,0-4.1-0.6-5.1-1.3L410.3,84.3z"/>
				<path class="st0" d="M426.2,80.7c0.1,3.6,2.3,5,5,5c1.9,0,3-0.3,4-0.7l0.4,1.9c-0.9,0.4-2.5,0.9-4.8,0.9c-4.5,0-7.1-2.9-7.1-7.3
					c0-4.4,2.6-7.8,6.8-7.8c4.7,0,6,4.2,6,6.8c0,0.5-0.1,1-0.1,1.2H426.2z M433.9,78.8c0-1.7-0.7-4.3-3.6-4.3c-2.7,0-3.8,2.4-4,4.3
					H433.9z"/>
				<path class="st0" d="M451.8,73c-0.1,1-0.1,2.2-0.1,4v8.4c0,3.3-0.7,5.3-2.1,6.6c-1.4,1.3-3.4,1.7-5.3,1.7
					c-1.7,0-3.6-0.4-4.8-1.2l0.7-2c1,0.6,2.4,1.1,4.2,1.1c2.7,0,4.7-1.4,4.7-5V85H449c-0.8,1.3-2.4,2.4-4.6,2.4
					c-3.6,0-6.2-3-6.2-7.1c0-4.9,3.2-7.7,6.5-7.7c2.5,0,3.9,1.3,4.5,2.5h0.1l0.1-2.2H451.8z M449,78.7c0-0.4,0-0.8-0.1-1.2
					c-0.5-1.5-1.8-2.8-3.7-2.8c-2.5,0-4.3,2.1-4.3,5.5c0,2.8,1.4,5.2,4.3,5.2c1.6,0,3.1-1,3.6-2.7c0.1-0.4,0.2-1,0.2-1.4V78.7z"/>
				<path class="st0" d="M467.3,83.5c0,1.5,0,2.8,0.1,3.9h-2.3l-0.1-2.4h-0.1c-0.7,1.2-2.2,2.7-4.8,2.7c-2.3,0-5-1.3-5-6.3V73h2.6v8
					c0,2.7,0.8,4.6,3.2,4.6c1.8,0,3-1.2,3.5-2.4c0.1-0.4,0.2-0.9,0.2-1.3V73h2.6V83.5z"/>
				<path class="st0" d="M470.9,77.5c0-1.7,0-3.2-0.1-4.5h2.3l0.1,2.8h0.1c0.7-1.9,2.2-3.2,4-3.2c0.3,0,0.5,0,0.7,0.1v2.5
					c-0.3-0.1-0.5-0.1-0.9-0.1c-1.9,0-3.2,1.4-3.5,3.4c-0.1,0.4-0.1,0.8-0.1,1.2v7.7h-2.6V77.5z"/>
				<path class="st0" d="M493,80.1c0,5.3-3.7,7.7-7.2,7.7c-3.9,0-6.9-2.9-6.9-7.4c0-4.8,3.2-7.7,7.2-7.7
					C490.2,72.7,493,75.7,493,80.1z M481.5,80.3c0,3.2,1.8,5.6,4.4,5.6c2.5,0,4.4-2.4,4.4-5.6c0-2.4-1.2-5.6-4.3-5.6
					S481.5,77.5,481.5,80.3z"/>
				<path class="st0" d="M494.7,84.8c0.8,0.5,2.2,1,3.5,1c1.9,0,2.8-1,2.8-2.2c0-1.3-0.7-1.9-2.7-2.7c-2.6-0.9-3.8-2.4-3.8-4.1
					c0-2.3,1.9-4.2,5-4.2c1.5,0,2.7,0.4,3.6,0.9l-0.7,1.9c-0.6-0.4-1.6-0.8-3-0.8c-1.6,0-2.4,0.9-2.4,2c0,1.2,0.9,1.7,2.7,2.4
					c2.5,1,3.8,2.2,3.8,4.4c0,2.5-2,4.3-5.4,4.3c-1.6,0-3-0.4-4.1-1L494.7,84.8z"/>
			</g>
		</g>
	</g>
	<text transform="matrix(1 0 0 1 1197.0535 334.2124)"><tspan x="0" y="0" class="st0" style="font-family:'GillSansMT'; font-size:9.9789px;">C0</tspan><tspan x="12.1" y="0" class="st0" style="font-family:'GillSansMT'; font-size:9.9789px;"> </tspan><tspan x="14.8" y="0" class="st0" style="font-family:'GillSansMT'; font-size:9.9789px;">/</tspan><tspan x="17.6" y="0" class="st0" style="font-family:'GillSansMT'; font-size:9.9789px;"> </tspan><tspan x="20.4" y="0" class="st0" style="font-family:'GillSansMT'; font-size:9.9789px;">M0</tspan><tspan x="33.2" y="0" class="st0" style="font-family:'GillSansMT'; font-size:9.9789px;"> </tspan><tspan x="35.9" y="0" class="st0" style="font-family:'GillSansMT'; font-size:9.9789px;">/</tspan><tspan x="38.7" y="0" class="st0" style="font-family:'GillSansMT'; font-size:9.9789px; letter-spacing:-1;"> </tspan><tspan x="40" y="0" class="st0" style="font-family:'GillSansMT'; font-size:9.9789px;">Y0</tspan><tspan x="51" y="0" class="st0" style="font-family:'GillSansMT'; font-size:9.9789px;"> </tspan><tspan x="53.8" y="0" class="st0" style="font-family:'GillSansMT'; font-size:9.9789px;">/</tspan><tspan x="56.6" y="0" class="st0" style="font-family:'GillSansMT'; font-size:9.9789px;"> </tspan><tspan x="59.3" y="0" class="st0" style="font-family:'GillSansMT'; font-size:9.9789px;">K80</tspan></text>
	<text transform="matrix(1 0 0 1 1197.0535 346.187)" class="st0" style="font-family:'GillSansMT'; font-size:9.9789px;">R88 / G88 / B90</text>
	<text transform="matrix(1 0 0 1 1197.0535 358.1616)" class="st0" style="font-family:'GillSansMT'; font-size:9.9789px;">HTML #58585A</text>
	<text transform="matrix(1 0 0 1 1079.3406 358.1616)" class="st0" style="font-family:'GillSansMT'; font-size:9.9789px;">HTML #008E4F</text>
	<g>
		<text transform="matrix(1 0 0 1 1079.3409 242.3804)" class="st0" style="font-family:'GillSansMT-Bold'; font-size:10.7484px;">Verde medio</text>
	</g>
	<g>
		<text transform="matrix(1 0 0 1 1197.0531 242.3804)" class="st0" style="font-family:'GillSansMT-Bold'; font-size:10.7484px;">gris</text>
	</g>
	<text transform="matrix(1 0 0 1 1079.3406 334.2124)"><tspan x="0" y="0" class="st0" style="font-family:'GillSansMT'; font-size:10.4731px;">C100 / M0 /</tspan><tspan x="51.1" y="0" class="st0" style="font-family:'GillSansMT'; font-size:10.4731px; letter-spacing:-1;"> </tspan><tspan x="52.5" y="0" class="st0" style="font-family:'GillSansMT'; font-size:10.4731px;">Y90 / K20</tspan></text>
	<text transform="matrix(1 0 0 1 1079.3406 346.7808)" class="st0" style="font-family:'GillSansMT'; font-size:10.4731px;">R0 / G140 / B79</text>
	<text transform="matrix(1 0 0 1 960.0521 334.8179)"><tspan x="0" y="0" class="st0" style="font-family:'GillSansMT'; font-size:9.8229px;">C0 / M60 /</tspan><tspan x="43.1" y="0" class="st0" style="font-family:'GillSansMT'; font-size:9.8229px; letter-spacing:-1;"> </tspan><tspan x="44.3" y="0" class="st0" style="font-family:'GillSansMT'; font-size:9.8229px;">Y100 / K0</tspan></text>
	<text transform="matrix(1 0 0 1 960.0521 346.605)" class="st0" style="font-family:'GillSansMT'; font-size:9.8229px;">R244 / G122 / B32</text>
	<text transform="matrix(1 0 0 1 960.0521 358.3921)" class="st0" style="font-family:'GillSansMT'; font-size:9.8229px;">HTML #F47A20</text>
	<text transform="matrix(1 0 0 1 960.0511 239.9995)" class="st0" style="font-family:'GillSansMT-Bold'; font-size:10.6273px;">PR</text>
	<text transform="matrix(1 0 0 1 974.0472 239.9995)"><tspan x="0" y="0" class="st0" style="font-family:'GillSansMT-Bold'; font-size:10.6273px;">O</tspan><tspan x="8.6" y="0" class="st0" style="font-family:'GillSansMT-Bold'; font-size:10.6273px;">TE</tspan></text>
	<text transform="matrix(1 0 0 1 997.0452 239.9995)" class="st0" style="font-family:'GillSansMT-Bold'; font-size:10.6273px;">CC</text>
	<text transform="matrix(1 0 0 1 1013.43 239.9995)" class="st0" style="font-family:'GillSansMT-Bold'; font-size:10.6273px;">I</text>
	<text transform="matrix(1 0 0 1 1016.971 239.9995)" class="st0" style="font-family:'GillSansMT-Bold'; font-size:10.6273px;">Ó</text>
	<text transform="matrix(1 0 0 1 1026.2679 239.9995)" class="st0" style="font-family:'GillSansMT-Bold'; font-size:10.6273px;">N</text>
</g>
<g id="Capa_2">
</g>
</svg>
