<?xml version="1.0" encoding="utf-8"?>
<!-- Generator: Adobe Illustrator 22.1.0, SVG Export Plug-In . SVG Version: 6.00 Build 0)  -->
<svg version="1.1" xmlns="http://www.w3.org/2000/svg" xmlns:xlink="http://www.w3.org/1999/xlink" x="0px" y="0px" width="26.5px"
	 height="120.3px" viewBox="0 0 26.5 120.3" style="enable-background:new 0 0 26.5 120.3;" xml:space="preserve">
<style type="text/css">
	.st0{fill:#FFFFFF;}
	.st1{fill:#E0E0E0;}
</style>
<g id="Capa_1">
	<text transform="matrix(1 0 0 1 -196.7799 442.245)"><tspan x="0" y="0" class="st0" style="font-family:'GillSansMT'; font-size:9.9789px;">C0</tspan><tspan x="12.1" y="0" class="st0" style="font-family:'GillSansMT'; font-size:9.9789px;"> </tspan><tspan x="14.8" y="0" class="st0" style="font-family:'GillSansMT'; font-size:9.9789px;">/</tspan><tspan x="17.6" y="0" class="st0" style="font-family:'GillSansMT'; font-size:9.9789px;"> </tspan><tspan x="20.4" y="0" class="st0" style="font-family:'GillSansMT'; font-size:9.9789px;">M0</tspan><tspan x="33.2" y="0" class="st0" style="font-family:'GillSansMT'; font-size:9.9789px;"> </tspan><tspan x="35.9" y="0" class="st0" style="font-family:'GillSansMT'; font-size:9.9789px;">/</tspan><tspan x="38.7" y="0" class="st0" style="font-family:'GillSansMT'; font-size:9.9789px; letter-spacing:-1;"> </tspan><tspan x="40" y="0" class="st0" style="font-family:'GillSansMT'; font-size:9.9789px;">Y0</tspan><tspan x="51" y="0" class="st0" style="font-family:'GillSansMT'; font-size:9.9789px;"> </tspan><tspan x="53.8" y="0" class="st0" style="font-family:'GillSansMT'; font-size:9.9789px;">/</tspan><tspan x="56.6" y="0" class="st0" style="font-family:'GillSansMT'; font-size:9.9789px;"> </tspan><tspan x="59.3" y="0" class="st0" style="font-family:'GillSansMT'; font-size:9.9789px;">K80</tspan></text>
	<text transform="matrix(1 0 0 1 -196.7799 454.2196)" class="st0" style="font-family:'GillSansMT'; font-size:9.9789px;">R88 / G88 / B90</text>
	<text transform="matrix(1 0 0 1 -196.7799 466.1942)" class="st0" style="font-family:'GillSansMT'; font-size:9.9789px;">HTML #58585A</text>
	<text transform="matrix(1 0 0 1 -314.4928 466.1942)" class="st0" style="font-family:'GillSansMT'; font-size:9.9789px;">HTML #008E4F</text>
	<g>
		<text transform="matrix(1 0 0 1 -314.4924 350.413)" class="st0" style="font-family:'GillSansMT-Bold'; font-size:10.7484px;">Verde medio</text>
	</g>
	<g>
		<text transform="matrix(1 0 0 1 -196.7803 350.413)" class="st0" style="font-family:'GillSansMT-Bold'; font-size:10.7484px;">gris</text>
	</g>
	<text transform="matrix(1 0 0 1 -314.4928 442.245)"><tspan x="0" y="0" class="st0" style="font-family:'GillSansMT'; font-size:10.4731px;">C100 / M0 /</tspan><tspan x="51.1" y="0" class="st0" style="font-family:'GillSansMT'; font-size:10.4731px; letter-spacing:-1;"> </tspan><tspan x="52.5" y="0" class="st0" style="font-family:'GillSansMT'; font-size:10.4731px;">Y90 / K20</tspan></text>
	<text transform="matrix(1 0 0 1 -314.4928 454.8134)" class="st0" style="font-family:'GillSansMT'; font-size:10.4731px;">R0 / G140 / B79</text>
	<g>
		<g>
			<g>
				<path class="st1" d="M11.3,74.6L11.3,74c0.2,0,0.4-0.1,0.4-0.2c0.1-0.1,0.2-0.3,0.2-0.5c0-0.2-0.1-0.3-0.1-0.4
					c-0.1-0.1-0.2-0.2-0.3-0.2c-0.1,0-0.1,0-0.2,0.1c-0.1,0-0.1,0.1-0.1,0.2c0,0.1-0.1,0.2-0.1,0.5c-0.1,0.3-0.2,0.6-0.3,0.7
					c-0.2,0.2-0.4,0.3-0.6,0.3c-0.1,0-0.3-0.1-0.4-0.1c-0.1-0.1-0.3-0.2-0.3-0.4c-0.1-0.2-0.1-0.4-0.1-0.6c0-0.4,0.1-0.7,0.3-0.9
					c0.2-0.2,0.4-0.3,0.7-0.3l0,0.6c-0.2,0-0.3,0.1-0.3,0.2c-0.1,0.1-0.1,0.2-0.1,0.4c0,0.2,0,0.3,0.1,0.4c0.1,0.1,0.1,0.1,0.2,0.1
					c0.1,0,0.2,0,0.2-0.1c0.1-0.1,0.1-0.3,0.2-0.6c0.1-0.3,0.2-0.5,0.2-0.7c0.1-0.1,0.2-0.3,0.3-0.3c0.1-0.1,0.3-0.1,0.5-0.1
					c0.2,0,0.3,0,0.5,0.1c0.1,0.1,0.3,0.2,0.3,0.4c0.1,0.2,0.1,0.4,0.1,0.7c0,0.4-0.1,0.7-0.3,0.9C11.9,74.5,11.7,74.6,11.3,74.6z"
					/>
				<path class="st1" d="M9.3,71.6V71h1.7c0.3,0,0.4,0,0.5,0c0.1,0,0.2-0.1,0.3-0.2c0.1-0.1,0.1-0.2,0.1-0.4c0-0.2-0.1-0.3-0.1-0.4
					c-0.1-0.1-0.1-0.1-0.3-0.1c-0.1,0-0.3,0-0.5,0l-1.7,0v-0.6h1.6c0.4,0,0.6,0,0.8,0c0.2,0,0.3,0.1,0.4,0.2
					c0.1,0.1,0.2,0.2,0.3,0.4c0.1,0.2,0.1,0.3,0.1,0.6c0,0.3,0,0.5-0.1,0.7c-0.1,0.1-0.2,0.3-0.3,0.4c-0.1,0.1-0.2,0.1-0.3,0.2
					c-0.2,0-0.4,0-0.8,0H9.3z"/>
				<path class="st1" d="M12.3,68.6h-3v-1c0-0.4,0-0.6,0-0.7c0.1-0.2,0.1-0.3,0.3-0.4c0.2-0.1,0.4-0.2,0.6-0.2c0.2,0,0.3,0,0.5,0.1
					c0.1,0.1,0.2,0.2,0.3,0.3c0.1,0.1,0.1,0.2,0.1,0.3c0,0.1,0,0.4,0,0.6v0.4h1.1V68.6z M9.8,67.9h0.9v-0.3c0-0.2,0-0.4-0.1-0.5
					c0-0.1-0.1-0.2-0.1-0.2c-0.1,0-0.2-0.1-0.2-0.1c-0.1,0-0.2,0-0.3,0.1c-0.1,0.1-0.1,0.2-0.1,0.3c0,0.1,0,0.2,0,0.4V67.9z"/>
				<path class="st1" d="M12.3,65.7h-3v-2.3h0.5l0,1.6h0.7v-1.5H11v1.5h0.8v-1.7h0.5V65.7z"/>
				<path class="st1" d="M12.3,62.9h-3v-1.3c0-0.3,0-0.5,0.1-0.7c0.1-0.2,0.1-0.3,0.3-0.4c0.1-0.1,0.3-0.1,0.5-0.1
					c0.2,0,0.4,0.1,0.6,0.2c0.2,0.1,0.2,0.3,0.3,0.6c0.1-0.1,0.2-0.3,0.3-0.3c0.1-0.1,0.3-0.2,0.5-0.3l0.6-0.4v0.8l-0.7,0.4
					c-0.2,0.1-0.4,0.3-0.5,0.3c0,0.1-0.1,0.1-0.1,0.2c0,0.1,0,0.2,0,0.3v0.1h1.3V62.9z M10.6,62.3v-0.5c0-0.3,0-0.5,0-0.6
					c0-0.1-0.1-0.1-0.1-0.2c-0.1,0-0.1,0-0.2,0c-0.1,0-0.2,0-0.2,0.1c-0.1,0.1-0.1,0.1-0.1,0.2c0,0.1,0,0.2,0,0.4v0.5H10.6z"/>
				<path class="st1" d="M12.3,59.9l-3,0v-0.6h3V59.9z"/>
				<path class="st1" d="M12.3,58.7h-3V58l2-1.2h-2v-0.6h3v0.6l-2,1.2l2,0V58.7z"/>
				<path class="st1" d="M12.3,54.9H9.8v0.9H9.3v-2.4h0.5v0.9h2.5V54.9z"/>
				<path class="st1" d="M12.3,53h-3v-2.2h0.5v1.6h0.7v-1.5H11v1.5h0.8v-1.7h0.5V53z"/>
				<path class="st1" d="M12.3,50.2h-3v-0.6l2-1.3l-2,0v-0.6h3v0.6l-2,1.2h2L12.3,50.2z"/>
				<path class="st1" d="M9.3,47.1V46c0-0.3,0-0.4,0.1-0.6c0.1-0.2,0.1-0.3,0.3-0.5c0.1-0.1,0.3-0.2,0.5-0.3
					c0.2-0.1,0.4-0.1,0.7-0.1c0.3,0,0.5,0,0.6,0.1c0.2,0.1,0.4,0.2,0.5,0.3c0.1,0.1,0.2,0.2,0.2,0.5c0,0.1,0.1,0.3,0.1,0.5v1.2H9.3z
					 M9.8,46.5h2V46c0-0.2,0-0.3,0-0.4c0-0.1-0.1-0.2-0.1-0.2c-0.1-0.1-0.2-0.1-0.3-0.2c-0.2,0-0.3-0.1-0.6-0.1
					c-0.2,0-0.4,0-0.5,0.1c-0.1,0-0.2,0.1-0.3,0.2c-0.1,0.1-0.1,0.2-0.1,0.3c0,0.1,0,0.2,0,0.5V46.5z"/>
				<path class="st1" d="M12.3,44.1h-3v-2.3h0.5v1.6h0.7v-1.5H11v1.5h0.8v-1.7h0.5V44.1z"/>
				<path class="st1" d="M12.3,41.2h-3v-0.6l2-1.2l-2,0v-0.6h3v0.6l-2,1.2h2V41.2z"/>
				<path class="st1" d="M11.2,36.2l0.2-0.6c0.3,0.1,0.6,0.2,0.7,0.5c0.1,0.2,0.2,0.5,0.2,0.8c0,0.4-0.2,0.7-0.4,1
					c-0.3,0.2-0.7,0.4-1.1,0.4c-0.5,0-0.9-0.1-1.2-0.4c-0.3-0.3-0.4-0.6-0.4-1c0-0.4,0.1-0.7,0.3-0.9c0.1-0.1,0.3-0.2,0.6-0.3
					l0.1,0.6c-0.2,0-0.3,0.1-0.4,0.2c-0.1,0.1-0.1,0.3-0.1,0.4c0,0.2,0.1,0.4,0.3,0.5c0.2,0.1,0.4,0.2,0.8,0.2
					c0.4,0,0.7-0.1,0.8-0.2c0.1-0.1,0.3-0.3,0.3-0.5c0-0.2-0.1-0.3-0.2-0.4C11.6,36.4,11.4,36.3,11.2,36.2z"/>
				<path class="st1" d="M12.3,35.1h-3v-0.6l3,0L12.3,35.1z"/>
				<path class="st1" d="M12.3,31.1v0.7l-0.7,0.3v1.2l0.7,0.2v0.7l-3-1.2v-0.7L12.3,31.1z M11.1,32.3L10,32.7l1.1,0.4V32.3z"/>
				<path class="st1" d="M12.3,29.8h-3l0-2.1h0.5v1.5h0.7v-1.3H11v1.3h1.3V29.8z"/>
				<path class="st1" d="M12.3,27.2h-3v-0.6h3V27.2z"/>
				<path class="st1" d="M12.3,26h-3v-0.6l2-1.2h-2v-0.6h3v0.6l-2,1.2h2V26z"/>
				<path class="st1" d="M12.3,20.2v0.7l-0.7,0.3v1.2l0.7,0.3v0.6l-3-1.2v-0.6L12.3,20.2z M11.1,21.4L10,21.8l1.1,0.4V21.4z"/>
				<path class="st1" d="M12.3,19.9h-3v-0.6l2-1.2h-2v-0.6h3v0.6l-2,1.2l2,0V19.9z"/>
				<path class="st1" d="M11.1,14.9l0.2-0.6c0.3,0.1,0.6,0.3,0.7,0.5c0.2,0.2,0.2,0.5,0.2,0.8c0,0.4-0.1,0.7-0.4,1
					c-0.3,0.3-0.7,0.4-1.1,0.4c-0.5,0-0.9-0.1-1.2-0.4c-0.3-0.3-0.4-0.6-0.4-1c0-0.4,0.1-0.7,0.3-0.9c0.1-0.1,0.3-0.3,0.5-0.3
					l0.1,0.6c-0.2,0-0.3,0.1-0.4,0.2c-0.1,0.1-0.1,0.3-0.1,0.4c0,0.2,0.1,0.4,0.3,0.5c0.2,0.1,0.4,0.2,0.8,0.2
					c0.4,0,0.7-0.1,0.8-0.2c0.2-0.2,0.2-0.3,0.2-0.5c0-0.2,0-0.3-0.1-0.4C11.5,15,11.4,15,11.1,14.9z"/>
				<path class="st1" d="M12.3,13.8h-3v-0.6h3V13.8z"/>
				<path class="st1" d="M12.3,12.6h-3v-2.2h0.5V12h0.7v-1.5h0.5V12h0.8v-1.7h0.5V12.6z"/>
				<path class="st1" d="M12.3,9.8h-3l0-1.3c0-0.3,0-0.6,0.1-0.7c0.1-0.1,0.1-0.3,0.3-0.3c0.1-0.1,0.3-0.1,0.5-0.1
					c0.2,0,0.4,0.1,0.6,0.2c0.1,0.1,0.2,0.3,0.3,0.6C11,8,11.1,7.9,11.2,7.8c0.1-0.1,0.2-0.2,0.5-0.4L12.3,7v0.7l-0.7,0.4
					c-0.2,0.2-0.4,0.3-0.5,0.3c-0.1,0.1-0.1,0.1-0.1,0.2c0,0.1,0,0.2,0,0.3v0.1h1.3V9.8z M10.5,9.1V8.7c0-0.3,0-0.5,0-0.5
					c0-0.1-0.1-0.1-0.1-0.2c-0.1,0-0.1,0-0.2,0c-0.1,0-0.2,0-0.2,0.1C9.8,8,9.8,8.1,9.8,8.2c0,0.1,0,0.2,0,0.4v0.5H10.5z"/>
				<path class="st1" d="M12.3,4v0.7l-0.7,0.3v1.2l0.7,0.2l0,0.7l-3-1.2V5.2L12.3,4z M11.1,5.1L9.9,5.5l1.1,0.4V5.1z"/>
				<path class="st1" d="M14.1,54.1V53c0-0.3,0-0.5,0.1-0.6c0-0.2,0.1-0.3,0.3-0.5c0.1-0.1,0.3-0.2,0.5-0.3c0.2-0.1,0.4-0.1,0.7-0.1
					c0.2,0,0.5,0,0.6,0.1c0.2,0.1,0.4,0.2,0.5,0.3c0.1,0.1,0.2,0.3,0.2,0.4c0,0.1,0.1,0.3,0.1,0.5v1.1H14.1z M14.6,53.5h2v-0.5
					c0-0.2,0-0.3,0-0.4c0-0.1-0.1-0.2-0.1-0.2c-0.1-0.1-0.2-0.1-0.3-0.2c-0.2-0.1-0.3-0.1-0.6-0.1c-0.2,0-0.4,0-0.5,0.1
					c-0.1,0-0.2,0.1-0.3,0.2c-0.1,0.1-0.1,0.2-0.2,0.3c0,0.1,0,0.3,0,0.5V53.5z"/>
				<path class="st1" d="M17.2,51.1h-3v-2.2h0.5v1.6h0.7v-1.5h0.5v1.5h0.8v-1.7h0.5V51.1z"/>
				<path class="st1" d="M16.1,45.1l0.2-0.6c0.3,0.1,0.6,0.2,0.7,0.5c0.2,0.2,0.3,0.5,0.3,0.8c0,0.4-0.2,0.7-0.4,1
					c-0.3,0.2-0.7,0.4-1.1,0.4c-0.5,0-0.9-0.1-1.2-0.4c-0.3-0.3-0.4-0.6-0.4-1c0-0.4,0.1-0.7,0.3-0.9c0.1-0.1,0.3-0.2,0.6-0.3
					l0.1,0.6c-0.2,0-0.3,0.1-0.4,0.2c-0.1,0.1-0.2,0.2-0.2,0.4c0,0.2,0.1,0.4,0.3,0.5c0.2,0.1,0.4,0.2,0.8,0.2
					c0.4,0,0.7-0.1,0.8-0.2c0.2-0.1,0.2-0.3,0.2-0.5c0-0.2-0.1-0.3-0.2-0.4C16.4,45.3,16.3,45.2,16.1,45.1z"/>
				<path class="st1" d="M15.7,44.1c-0.3,0-0.6-0.1-0.8-0.1c-0.2-0.1-0.3-0.2-0.4-0.3c-0.1-0.1-0.2-0.2-0.3-0.4
					c-0.1-0.2-0.1-0.4-0.1-0.7c0-0.4,0.1-0.8,0.4-1.1c0.3-0.3,0.7-0.4,1.2-0.4c0.5,0,0.9,0.1,1.1,0.4c0.3,0.2,0.4,0.6,0.4,1.1
					c0,0.5-0.1,0.8-0.4,1.1C16.5,44,16.2,44.1,15.7,44.1z M15.6,43.5c0.4,0,0.6-0.1,0.8-0.2c0.2-0.2,0.3-0.4,0.3-0.6
					c0-0.2-0.1-0.5-0.3-0.6c-0.2-0.2-0.4-0.2-0.8-0.2c-0.3,0-0.6,0.1-0.8,0.2c-0.2,0.1-0.3,0.3-0.3,0.6c0,0.3,0.1,0.5,0.3,0.6
					C15,43.4,15.3,43.5,15.6,43.5z"/>
				<path class="st1" d="M17.2,40.7h-3v-0.6h2.5v-1.5h0.5V40.7z"/>
				<path class="st1" d="M15.7,38.2c-0.3,0-0.6-0.1-0.8-0.1c-0.2-0.1-0.3-0.2-0.4-0.3c-0.1-0.1-0.2-0.3-0.3-0.4
					c-0.1-0.2-0.1-0.4-0.1-0.7c0-0.4,0.1-0.8,0.4-1.1c0.3-0.3,0.7-0.4,1.2-0.4c0.5,0,0.9,0.1,1.1,0.4c0.3,0.3,0.4,0.6,0.4,1.1
					c0,0.5-0.1,0.8-0.4,1.1C16.5,38.1,16.2,38.2,15.7,38.2z M15.6,37.6c0.3,0,0.6-0.1,0.8-0.2c0.2-0.2,0.3-0.4,0.3-0.6
					c0-0.2-0.1-0.4-0.3-0.6c-0.2-0.2-0.4-0.2-0.8-0.2c-0.3,0-0.6,0.1-0.8,0.2c-0.2,0.2-0.3,0.4-0.3,0.6c0,0.3,0.1,0.5,0.3,0.6
					C15,37.5,15.3,37.6,15.6,37.6z"/>
				<path class="st1" d="M17.2,34.8h-3v-0.9l2.1-0.6l-2.1-0.6v-0.9h3v0.6h-2.4l2.4,0.6l0,0.6l-2.4,0.6h2.4V34.8z"/>
				<path class="st1" d="M14.1,31.3v-1.2c0-0.2,0-0.4,0-0.6c0-0.1,0.1-0.2,0.1-0.3c0-0.1,0.1-0.2,0.2-0.2c0.1-0.1,0.2-0.1,0.4-0.1
					c0.1,0,0.3,0,0.4,0.1c0.1,0.1,0.2,0.2,0.3,0.3c0-0.2,0.1-0.3,0.3-0.4c0.1-0.1,0.3-0.2,0.5-0.2c0.1,0,0.3,0,0.4,0.1
					c0.1,0.1,0.2,0.2,0.3,0.3c0.1,0.1,0.1,0.2,0.1,0.4c0,0.1,0,0.3,0,0.7v1H14.1z M14.6,30.7h0.7v-0.4c0-0.2,0-0.4,0-0.5
					c0-0.1,0-0.2-0.1-0.2c-0.1-0.1-0.1-0.1-0.2-0.1c-0.1,0-0.2,0-0.2,0.1c-0.1,0-0.1,0.1-0.1,0.2c0,0.1,0,0.3,0,0.5V30.7z
					 M15.8,30.7h0.8v-0.6c0-0.2,0-0.4,0-0.4c0-0.1-0.1-0.2-0.1-0.2c-0.1-0.1-0.2-0.1-0.3-0.1c-0.1,0-0.2,0-0.2,0.1
					c-0.1,0.1-0.1,0.1-0.1,0.2c0,0.1,0,0.2,0,0.5V30.7z"/>
				<path class="st1" d="M17.2,28.2h-3v-0.6h3V28.2z"/>
				<path class="st1" d="M17.2,24.3v0.7l-0.7,0.3v1.2l0.7,0.3v0.6l-3.1-1.2v-0.6L17.2,24.3z M15.9,25.4l-1.1,0.4l1.1,0.4V25.4z"/>
			</g>
			<g>
				<g>
					<path class="st1" d="M15.2,114l-3.5,1.3v-0.8l2.6-0.9l-2.6-0.8V112l3.5,1.3V114z"/>
					<path class="st1" d="M15.2,109.8h-3.5v-0.7l3.5,0V109.8z"/>
					<path class="st1" d="M13.9,105h-0.6v-1.5h1.4c0.1,0.1,0.3,0.4,0.4,0.6c0.1,0.3,0.2,0.6,0.2,0.9c0,0.4-0.1,0.7-0.2,1
						c-0.2,0.3-0.4,0.5-0.7,0.6c-0.3,0.1-0.6,0.2-0.9,0.2c-0.4,0-0.7-0.1-1-0.2c-0.3-0.2-0.5-0.4-0.7-0.7c-0.1-0.2-0.2-0.5-0.2-0.8
						c0-0.4,0.1-0.8,0.3-1c0.2-0.2,0.4-0.4,0.8-0.5l0.1,0.7c-0.2,0.1-0.3,0.2-0.4,0.3c-0.1,0.1-0.2,0.3-0.2,0.5
						c0,0.3,0.1,0.6,0.3,0.7c0.2,0.2,0.5,0.3,0.9,0.3c0.4,0,0.7-0.1,0.9-0.3c0.2-0.2,0.3-0.4,0.3-0.7c0-0.2,0-0.3-0.1-0.4
						c0-0.1-0.1-0.3-0.2-0.4h-0.4V105z"/>
					<path class="st1" d="M15.2,101l-3.5,0v-0.7l3.5,0V101z"/>
					<path class="st1" d="M15.2,97.7h-3.5v-0.7l2.9,0v-1.7h0.6V97.7z"/>
					<path class="st1" d="M15.2,89.8v0.8l-0.8,0.3v1.4l0.8,0.3v0.7l-3.5-1.4v-0.7L15.2,89.8z M13.8,91.1l-1.3,0.5l1.3,0.5V91.1z"/>
					<path class="st1" d="M11.7,87.6v-1.3c0-0.3,0-0.5,0.1-0.7c0.1-0.2,0.2-0.4,0.3-0.5c0.2-0.2,0.3-0.3,0.6-0.3
						c0.2-0.1,0.5-0.1,0.8-0.1c0.3,0,0.5,0,0.7,0.1c0.3,0.1,0.5,0.2,0.6,0.4c0.1,0.1,0.2,0.3,0.3,0.5c0,0.2,0.1,0.4,0.1,0.6l0,1.3
						H11.7z M12.3,86.9h2.3v-0.5c0-0.2,0-0.3,0-0.4c0-0.1-0.1-0.2-0.1-0.3c-0.1-0.1-0.2-0.1-0.4-0.2c-0.2-0.1-0.4-0.1-0.6-0.1
						c-0.3,0-0.5,0-0.6,0.1c-0.1,0-0.3,0.1-0.3,0.2c-0.1,0.1-0.2,0.2-0.2,0.3c0,0.1,0,0.3,0,0.6V86.9z"/>
					<path class="st1" d="M13.5,82.4c-0.3,0-0.6-0.1-0.9-0.2c-0.2-0.1-0.3-0.2-0.5-0.3c-0.1-0.1-0.2-0.3-0.3-0.5
						c-0.1-0.2-0.1-0.5-0.1-0.7c0-0.5,0.2-0.9,0.5-1.2c0.3-0.3,0.8-0.5,1.3-0.5c0.6,0,1,0.2,1.3,0.5c0.3,0.3,0.5,0.7,0.5,1.2
						c0,0.5-0.1,0.9-0.5,1.2C14.5,82.2,14.1,82.4,13.5,82.4z M13.5,81.6c0.4,0,0.7-0.1,0.9-0.3c0.2-0.2,0.3-0.4,0.3-0.7
						c0-0.3-0.1-0.5-0.3-0.7c-0.2-0.2-0.5-0.3-0.9-0.3c-0.4,0-0.7,0.1-0.9,0.3c-0.2,0.2-0.3,0.4-0.3,0.7c0,0.3,0.1,0.5,0.3,0.7
						C12.8,81.5,13.1,81.6,13.5,81.6z"/>
				</g>
				<polygon class="st1" points="8.7,77 8.8,117.3 8.1,117.3 8.1,77 				"/>
				<polygon class="st1" points="18.4,77 18.4,117.3 17.8,117.3 17.7,77 				"/>
			</g>
		</g>
	</g>
	<text transform="matrix(1 0 0 1 -433.7812 442.8505)"><tspan x="0" y="0" class="st0" style="font-family:'GillSansMT'; font-size:9.8229px;">C0 / M60 /</tspan><tspan x="43.1" y="0" class="st0" style="font-family:'GillSansMT'; font-size:9.8229px; letter-spacing:-1;"> </tspan><tspan x="44.3" y="0" class="st0" style="font-family:'GillSansMT'; font-size:9.8229px;">Y100 / K0</tspan></text>
	<text transform="matrix(1 0 0 1 -433.7812 454.6376)" class="st0" style="font-family:'GillSansMT'; font-size:9.8229px;">R244 / G122 / B32</text>
	<text transform="matrix(1 0 0 1 -433.7812 466.4247)" class="st0" style="font-family:'GillSansMT'; font-size:9.8229px;">HTML #F47A20</text>
	<text transform="matrix(1 0 0 1 -433.7822 348.0321)" class="st0" style="font-family:'GillSansMT-Bold'; font-size:10.6273px;">PR</text>
	<text transform="matrix(1 0 0 1 -419.7861 348.0321)"><tspan x="0" y="0" class="st0" style="font-family:'GillSansMT-Bold'; font-size:10.6273px;">O</tspan><tspan x="8.6" y="0" class="st0" style="font-family:'GillSansMT-Bold'; font-size:10.6273px;">TE</tspan></text>
	<text transform="matrix(1 0 0 1 -396.7881 348.0321)" class="st0" style="font-family:'GillSansMT-Bold'; font-size:10.6273px;">CC</text>
	<text transform="matrix(1 0 0 1 -380.4033 348.0321)" class="st0" style="font-family:'GillSansMT-Bold'; font-size:10.6273px;">I</text>
	<text transform="matrix(1 0 0 1 -376.8623 348.0321)" class="st0" style="font-family:'GillSansMT-Bold'; font-size:10.6273px;">Ó</text>
	<text transform="matrix(1 0 0 1 -367.5654 348.0321)" class="st0" style="font-family:'GillSansMT-Bold'; font-size:10.6273px;">N</text>
</g>
<g id="Capa_2">
</g>
</svg>
